<svg width="56" height="57" viewBox="0 0 56 57" fill="none" xmlns="http://www.w3.org/2000/svg">
<path opacity="0.2" d="M23.625 32.0781H8.75C8.28587 32.0781 7.84075 31.8938 7.51256 31.5656C7.18437 31.2374 7 30.7923 7 30.3281V16.3281C7 15.864 7.18437 15.4189 7.51256 15.0907C7.84075 14.7625 8.28587 14.5781 8.75 14.5781H21.875C22.3391 14.5781 22.7842 14.7625 23.1124 15.0907C23.4406 15.4189 23.625 15.864 23.625 16.3281V32.0781Z" fill="#A9A0E5"/>
<path opacity="0.2" d="M49 32.0781H34.125C33.6609 32.0781 33.2158 31.8938 32.8876 31.5656C32.5594 31.2374 32.375 30.7923 32.375 30.3281V16.3281C32.375 15.864 32.5594 15.4189 32.8876 15.0907C33.2158 14.7625 33.6609 14.5781 34.125 14.5781H47.25C47.7141 14.5781 48.1592 14.7625 48.4874 15.0907C48.8156 15.4189 49 15.864 49 16.3281V32.0781Z" fill="#A9A0E5"/>
<path d="M23.625 32.0781H8.75C8.28587 32.0781 7.84075 31.8938 7.51256 31.5656C7.18437 31.2374 7 30.7923 7 30.3281V16.3281C7 15.864 7.18437 15.4189 7.51256 15.0907C7.84075 14.7625 8.28587 14.5781 8.75 14.5781H21.875C22.3391 14.5781 22.7842 14.7625 23.1124 15.0907C23.4406 15.4189 23.625 15.864 23.625 16.3281V35.5781C23.625 37.8988 22.7031 40.1244 21.0622 41.7653C19.4212 43.4063 17.1956 44.3281 14.875 44.3281" stroke="#A9A0E5" stroke-width="3" stroke-linecap="round" stroke-linejoin="round"/>
<path d="M49 32.0781H34.125C33.6609 32.0781 33.2158 31.8938 32.8876 31.5656C32.5594 31.2374 32.375 30.7923 32.375 30.3281V16.3281C32.375 15.864 32.5594 15.4189 32.8876 15.0907C33.2158 14.7625 33.6609 14.5781 34.125 14.5781H47.25C47.7141 14.5781 48.1592 14.7625 48.4874 15.0907C48.8156 15.4189 49 15.864 49 16.3281V35.5781C49 37.8988 48.0781 40.1244 46.4372 41.7653C44.7962 43.4063 42.5706 44.3281 40.25 44.3281" stroke="#A9A0E5" stroke-width="3" stroke-linecap="round" stroke-linejoin="round"/>
</svg>
