<svg width="20" height="20" viewBox="0 0 20 20" fill="none" xmlns="http://www.w3.org/2000/svg">
<path d="M9.41683 16.0833C9.26405 15.9306 9.18405 15.7361 9.17683 15.5C9.16961 15.2639 9.24267 15.0694 9.396 14.9167L13.4793 10.8333H4.16683C3.93072 10.8333 3.73267 10.7533 3.57267 10.5933C3.41267 10.4333 3.33294 10.2356 3.3335 10C3.3335 9.76389 3.4135 9.56583 3.5735 9.40583C3.7335 9.24583 3.93128 9.16611 4.16683 9.16667H13.4793L9.396 5.08333C9.24322 4.93056 9.17017 4.73611 9.17683 4.5C9.1835 4.26389 9.2635 4.06944 9.41683 3.91667C9.56961 3.76389 9.76405 3.6875 10.0002 3.6875C10.2363 3.6875 10.4307 3.76389 10.5835 3.91667L16.0835 9.41667C16.1668 9.48611 16.226 9.57306 16.261 9.6775C16.296 9.78194 16.3132 9.88944 16.3127 10C16.3127 10.1111 16.2954 10.2153 16.261 10.3125C16.2266 10.4097 16.1674 10.5 16.0835 10.5833L10.5835 16.0833C10.4307 16.2361 10.2363 16.3125 10.0002 16.3125C9.76405 16.3125 9.56961 16.2361 9.41683 16.0833Z" fill="white"/>
</svg>
