<svg width="20" height="21" viewBox="0 0 20 21" fill="none" xmlns="http://www.w3.org/2000/svg">
<path d="M9.41634 16.5833C9.26357 16.4306 9.18357 16.2361 9.17634 16C9.16912 15.7639 9.24218 15.5694 9.39551 15.4167L13.4788 11.3333H4.16634C3.93023 11.3333 3.73218 11.2533 3.57218 11.0933C3.41218 10.9333 3.33246 10.7356 3.33301 10.5C3.33301 10.2639 3.41301 10.0658 3.57301 9.90583C3.73301 9.74583 3.93079 9.66611 4.16634 9.66667H13.4788L9.39551 5.58333C9.24273 5.43056 9.16968 5.23611 9.17634 5C9.18301 4.76389 9.26301 4.56944 9.41634 4.41667C9.56912 4.26389 9.76357 4.1875 9.99968 4.1875C10.2358 4.1875 10.4302 4.26389 10.583 4.41667L16.083 9.91667C16.1663 9.98611 16.2255 10.0731 16.2605 10.1775C16.2955 10.2819 16.3127 10.3894 16.3122 10.5C16.3122 10.6111 16.295 10.7153 16.2605 10.8125C16.2261 10.9097 16.1669 11 16.083 11.0833L10.583 16.5833C10.4302 16.7361 10.2358 16.8125 9.99968 16.8125C9.76357 16.8125 9.56912 16.7361 9.41634 16.5833Z" fill="#262556"/>
</svg>
