<svg width="33" height="33" viewBox="0 0 33 33" fill="none" xmlns="http://www.w3.org/2000/svg">
<circle cx="16.3076" cy="16.1582" r="16" fill="white"/>
<circle cx="16.3076" cy="16.1582" r="16" fill="white"/>
<path d="M11.029 12.4564H11.0076C10.7749 12.4704 10.5419 12.4363 10.323 12.3562C10.1041 12.2762 9.9041 12.1518 9.73542 11.991C9.56674 11.8301 9.43303 11.6363 9.34265 11.4214C9.25226 11.2066 9.20714 10.9754 9.2101 10.7424C9.21306 10.5093 9.26403 10.2794 9.35984 10.0669C9.45565 9.85445 9.59424 9.66401 9.76694 9.50751C9.93965 9.351 10.1428 9.23178 10.3636 9.15729C10.5845 9.0828 10.8183 9.05464 11.0505 9.07457C11.2839 9.05767 11.5182 9.08923 11.7388 9.16728C11.9594 9.24532 12.1615 9.36816 12.3323 9.52807C12.5031 9.68797 12.639 9.88149 12.7314 10.0964C12.8238 10.3114 12.8707 10.5432 12.8692 10.7771C12.8677 11.0111 12.8178 11.2422 12.7227 11.456C12.6276 11.6698 12.4892 11.8615 12.3164 12.0193C12.1435 12.177 11.9399 12.2972 11.7184 12.3724C11.4968 12.4477 11.2621 12.4762 11.029 12.4564Z" fill="#3D8BF2"/>
<path d="M9.52246 14.7324H12.5575V23.8374H9.52246V14.7324Z" fill="#3D8BF2"/>
<path d="M20.5237 14.7324C20.0123 14.7338 19.5078 14.8508 19.0479 15.0746C18.588 15.2984 18.1847 15.6233 17.868 16.0249V14.7324H14.833V23.8374H17.868V19.6643C17.868 19.2618 18.0279 18.8759 18.3125 18.5913C18.5971 18.3067 18.9831 18.1468 19.3856 18.1468C19.788 18.1468 20.174 18.3067 20.4586 18.5913C20.7432 18.8759 20.9031 19.2618 20.9031 19.6643V23.8374H23.9381V18.1468C23.9381 17.6984 23.8498 17.2544 23.6782 16.8402C23.5066 16.4259 23.2551 16.0495 22.9381 15.7325C22.621 15.4154 22.2446 15.1639 21.8304 14.9923C21.4161 14.8207 20.9721 14.7324 20.5237 14.7324Z" fill="#3D8BF2"/>
</svg>
