<svg width="33" height="33" viewBox="0 0 33 33" fill="none" xmlns="http://www.w3.org/2000/svg">
<circle cx="16.6152" cy="16.1582" r="16" fill="white"/>
<path d="M16.6152 12.3652C15.8652 12.3652 15.1321 12.5876 14.5085 13.0043C13.8849 13.4209 13.3989 14.0132 13.1119 14.706C12.8249 15.3989 12.7498 16.1614 12.8961 16.8969C13.0424 17.6325 13.4036 18.3081 13.9339 18.8384C14.4642 19.3688 15.1398 19.7299 15.8754 19.8762C16.611 20.0225 17.3734 19.9474 18.0663 19.6604C18.7592 19.3734 19.3514 18.8874 19.768 18.2638C20.1847 17.6403 20.4071 16.9071 20.4071 16.1572C20.4071 15.6592 20.309 15.1661 20.1185 14.706C19.9279 14.246 19.6486 13.828 19.2965 13.4758C18.9444 13.1237 18.5264 12.8444 18.0663 12.6539C17.6062 12.4633 17.1131 12.3652 16.6152 12.3652ZM16.6152 18.6189C16.1283 18.6189 15.6523 18.4745 15.2475 18.204C14.8427 17.9335 14.5271 17.549 14.3408 17.0992C14.1545 16.6494 14.1058 16.1544 14.2007 15.6769C14.2957 15.1993 14.5302 14.7607 14.8745 14.4164C15.2188 14.0721 15.6574 13.8377 16.1349 13.7427C16.6125 13.6477 17.1074 13.6965 17.5573 13.8828C18.0071 14.0691 18.3916 14.3846 18.6621 14.7895C18.9325 15.1943 19.0769 15.6703 19.0769 16.1572C19.077 16.4804 19.0133 16.8006 18.8896 17.0993C18.7659 17.398 18.5846 17.6693 18.356 17.8979C18.1274 18.1265 17.856 18.3079 17.5573 18.4316C17.2586 18.5553 16.9385 18.6189 16.6152 18.6189Z" fill="#3D8BF2"/>
<path d="M23.955 13.1135C23.9429 12.5009 23.827 11.8948 23.612 11.3211C23.4263 10.8284 23.1356 10.3821 22.7602 10.0129C22.3916 9.63715 21.9454 9.34644 21.4527 9.16113C20.879 8.94608 20.2728 8.8301 19.6602 8.81814C18.8728 8.7823 18.6211 8.77344 16.6157 8.77344C14.6103 8.77344 14.3584 8.78175 13.5705 8.81814C12.958 8.83025 12.3519 8.94622 11.7781 9.16113C11.2853 9.34661 10.8389 9.63729 10.47 10.0129C10.094 10.3816 9.80326 10.8281 9.61821 11.3211C9.40331 11.8949 9.28733 12.5009 9.27523 13.1135C9.23883 13.9009 9.23047 14.1526 9.23047 16.1581C9.23047 18.1635 9.23883 18.4152 9.27521 19.2026C9.28732 19.8151 9.4033 20.4212 9.61821 20.995C9.80331 21.488 10.094 21.9345 10.47 22.3032C10.8391 22.6786 11.2855 22.9692 11.7781 23.1549C12.3519 23.3698 12.958 23.4857 13.5705 23.4979C14.3584 23.5337 14.6097 23.5427 16.6151 23.5427C18.6205 23.5427 18.8723 23.5343 19.6596 23.4979C20.2722 23.4858 20.8783 23.3698 21.4521 23.1549C21.9427 22.9652 22.3883 22.6751 22.7603 22.3032C23.1322 21.9312 23.4223 21.4857 23.612 20.995C23.8272 20.4213 23.9432 19.8152 23.955 19.2026C23.9908 18.4146 23.9992 18.1635 23.9992 16.1581C23.9992 14.1526 23.9908 13.9009 23.955 13.1135ZM22.6265 19.1424C22.6208 19.6106 22.5349 20.0745 22.3725 20.5137C22.2496 20.8322 22.0614 21.1214 21.8199 21.3627C21.5785 21.604 21.2892 21.7921 20.9707 21.9149C20.5316 22.0777 20.0677 22.1636 19.5993 22.1689C18.8209 22.2047 18.5871 22.2119 16.6151 22.2119C14.643 22.2119 14.4098 22.2047 13.6317 22.1689C13.1633 22.1636 12.6994 22.0777 12.2603 21.9149C11.9395 21.7964 11.6493 21.6076 11.4109 21.3625C11.1654 21.1246 10.9766 20.8345 10.8585 20.5138C10.6957 20.0746 10.6098 19.6107 10.6045 19.1424C10.5687 18.364 10.5615 18.1302 10.5615 16.1581C10.5615 14.186 10.5693 13.9529 10.6045 13.1738C10.6104 12.7056 10.6963 12.2418 10.8585 11.8025C10.977 11.4818 11.1658 11.1915 11.4109 10.9531C11.6489 10.7075 11.9392 10.5187 12.2603 10.4007C12.6994 10.2379 13.1633 10.152 13.6317 10.1467C14.4101 10.1109 14.6439 10.1038 16.6151 10.1038C18.5863 10.1038 18.8203 10.1115 19.5993 10.1467C20.0676 10.1526 20.5314 10.2385 20.9707 10.4007C21.2893 10.5235 21.5787 10.7117 21.8201 10.9531C22.0616 11.1946 22.2497 11.4839 22.3725 11.8025C22.5353 12.2416 22.6212 12.7055 22.6265 13.1738C22.6623 13.9529 22.6695 14.1861 22.6695 16.1581C22.6695 18.1301 22.6623 18.3633 22.6265 19.1424Z" fill="#3D8BF2"/>
<path d="M20.5571 11.3301C20.3221 11.3301 20.0964 11.4235 19.9303 11.5897C19.7642 11.7558 19.6709 11.9812 19.6709 12.2162C19.6709 12.4511 19.7643 12.6765 19.9304 12.8426C20.0966 13.0087 20.3219 13.1021 20.5569 13.1021C20.7919 13.1021 21.0172 13.0087 21.1834 12.8426C21.3495 12.6765 21.4429 12.4511 21.4429 12.2162C21.4429 11.9812 21.3496 11.7558 21.1835 11.5897C21.0174 11.4235 20.792 11.3301 20.5571 11.3301Z" fill="#3D8BF2"/>
</svg>
