<svg width="33" height="33" viewBox="0 0 33 33" fill="none" xmlns="http://www.w3.org/2000/svg">
<circle cx="16.1538" cy="16.1582" r="16" fill="white"/>
<g clip-path="url(#clip0_339_2065)">
<path d="M21.0341 11.8663C20.9328 11.814 20.8343 11.7566 20.7388 11.6945C20.461 11.5108 20.2064 11.2945 19.9803 11.0501C19.4147 10.4029 19.2035 9.74633 19.1256 9.28664H19.1288C19.0638 8.90508 19.0906 8.6582 19.0947 8.6582H16.5185V18.6201C16.5185 18.7538 16.5185 18.886 16.5128 19.0166C16.5128 19.0329 16.5113 19.0479 16.5103 19.0654C16.5103 19.0726 16.5103 19.0801 16.5088 19.0876C16.5088 19.0895 16.5088 19.0913 16.5088 19.0932C16.4816 19.4506 16.367 19.7959 16.1751 20.0987C15.9832 20.4014 15.7198 20.6524 15.4081 20.8295C15.0833 21.0143 14.7159 21.1112 14.3422 21.1107C13.1419 21.1107 12.1691 20.132 12.1691 18.9232C12.1691 17.7145 13.1419 16.7357 14.3422 16.7357C14.5694 16.7355 14.7952 16.7712 15.0113 16.8416L15.0144 14.2185C14.3586 14.1338 13.6923 14.1859 13.0576 14.3716C12.423 14.5573 11.8337 14.8724 11.3269 15.2973C10.8828 15.6831 10.5095 16.1434 10.2238 16.6576C10.115 16.8451 9.7047 17.5985 9.65502 18.8213C9.62377 19.5154 9.8322 20.2345 9.93158 20.5316V20.5379C9.99408 20.7129 10.2363 21.3101 10.631 21.8135C10.9492 22.2173 11.3252 22.5721 11.7469 22.8663V22.8601L11.7531 22.8663C13.0003 23.7138 14.3831 23.6582 14.3831 23.6582C14.6225 23.6485 15.4244 23.6582 16.335 23.2266C17.345 22.7482 17.92 22.0354 17.92 22.0354C18.2874 21.6095 18.5794 21.1241 18.7838 20.6001C19.0169 19.9873 19.0947 19.2523 19.0947 18.9585V13.6735C19.126 13.6923 19.5422 13.9676 19.5422 13.9676C19.5422 13.9676 20.1419 14.352 21.0775 14.6023C21.7488 14.7804 22.6531 14.8179 22.6531 14.8179V12.2604C22.3363 12.2948 21.6928 12.1948 21.0341 11.8663Z" fill="#3D8BF2"/>
</g>
<defs>
<clipPath id="clip0_339_2065">
<rect width="16" height="16" fill="white" transform="translate(8.15381 8.1582)"/>
</clipPath>
</defs>
</svg>
