<svg width="32" height="33" viewBox="0 0 32 33" fill="none" xmlns="http://www.w3.org/2000/svg">
<circle cx="16" cy="16.1582" r="16" fill="white"/>
<path fill-rule="evenodd" clip-rule="evenodd" d="M21.6 10.4582C20.1 8.9582 18.1 8.1582 16 8.1582C11.6 8.1582 8 11.7582 8 16.1582C8 17.5582 8.40001 18.9582 9.10001 20.1582L8 24.1582L12.2 23.0582C13.4 23.6582 14.7 24.0582 16 24.0582C20.4 24.0582 24 20.4582 24 16.0582C24 13.9582 23.1 11.9582 21.6 10.4582ZM16 22.7582C14.8 22.7582 13.6 22.4582 12.6 21.8582L12.4 21.7582L9.89999 22.4582L10.6 20.0582L10.4 19.7582C9.69999 18.6582 9.39999 17.4582 9.39999 16.2582C9.39999 12.6582 12.4 9.6582 16 9.6582C17.8 9.6582 19.4 10.3582 20.7 11.5582C22 12.8582 22.6 14.4582 22.6 16.2582C22.6 19.7582 19.7 22.7582 16 22.7582ZM19.6 17.7582C19.4 17.6582 18.4 17.1582 18.2 17.1582C18 17.0582 17.9 17.0582 17.8 17.2582C17.7 17.4582 17.3 17.8582 17.2 18.0582C17.1 18.1582 17 18.1582 16.8 18.1582C16.6 18.0582 16 17.8582 15.2 17.1582C14.6 16.6582 14.2 15.9582 14.1 15.7582C14 15.5582 14.1 15.4582 14.2 15.3582C14.3 15.2582 14.4 15.1582 14.5 15.0582C14.6 14.9582 14.6 14.8582 14.7 14.7582C14.8 14.6582 14.7 14.5582 14.7 14.4582C14.7 14.3582 14.3 13.3582 14.1 12.9582C14 12.6582 13.8 12.6582 13.7 12.6582C13.6 12.6582 13.5 12.6582 13.3 12.6582C13.2 12.6582 13 12.6582 12.8 12.8582C12.6 13.0582 12.1 13.5582 12.1 14.5582C12.1 15.5582 12.8 16.4582 12.9 16.6582C13 16.7582 14.3 18.8582 16.3 19.6582C18 20.3582 18.3 20.1582 18.7 20.1582C19.1 20.1582 19.9 19.6582 20 19.2582C20.2 18.7582 20.2 18.3582 20.1 18.3582C20 17.8582 19.8 17.8582 19.6 17.7582Z" fill="#3D8BF2"/>
</svg>
