<svg width="21" height="21" viewBox="0 0 21 21" fill="none" xmlns="http://www.w3.org/2000/svg">
<path d="M20.4873 2.99465C19.7436 3.39618 18.9511 3.66234 18.1248 3.79157C18.9748 3.16695 19.6236 2.18541 19.9286 1.00234C19.1361 1.58388 18.2611 1.99465 17.3286 2.22388C16.5761 1.23772 15.5036 0.626953 14.3336 0.626953C12.0636 0.626953 10.2361 2.89465 10.2361 5.67465C10.2361 6.07465 10.2636 6.45926 10.3311 6.82541C6.92231 6.6208 3.90605 4.61003 1.8798 1.54695C1.52605 2.30234 1.31855 3.16695 1.31855 4.09772C1.31855 5.84541 2.0498 7.39465 3.1398 8.29157C2.48105 8.27618 1.8348 8.0408 1.2873 7.67003C1.2873 7.68541 1.2873 7.70541 1.2873 7.72541C1.2873 10.1777 2.70855 12.2146 4.57231 12.6839C4.23855 12.7962 3.8748 12.85 3.4973 12.85C3.2348 12.85 2.9698 12.8316 2.72105 12.7639C3.2523 14.7623 4.75981 16.2316 6.55231 16.2793C5.15731 17.6223 3.38605 18.4316 1.46855 18.4316C1.1323 18.4316 0.809805 18.4131 0.487305 18.3623C2.30355 19.8039 4.45605 20.627 6.77731 20.627C14.3223 20.627 18.4473 12.9346 18.4473 6.26695C18.4473 6.04388 18.4411 5.82849 18.4323 5.61465C19.2461 4.90388 19.9298 4.01618 20.4873 2.99465Z" fill="#3D8BF2"/>
</svg>
