<svg width="21" height="21" viewBox="0 0 21 21" fill="none" xmlns="http://www.w3.org/2000/svg">
<path fill-rule="evenodd" clip-rule="evenodd" d="M6.73731 0.626953H14.2373C17.6886 0.626953 20.4873 3.4257 20.4873 6.87695V14.377C20.4873 17.8282 17.6886 20.627 14.2373 20.627H6.73731C3.28605 20.627 0.487305 17.8282 0.487305 14.377V6.87695C0.487305 3.4257 3.28605 0.626953 6.73731 0.626953ZM14.2371 18.752C16.6496 18.752 18.6121 16.7895 18.6121 14.377V6.87695C18.6121 4.46445 16.6496 2.50195 14.2371 2.50195H6.7371C4.3246 2.50195 2.3621 4.46445 2.3621 6.87695V14.377C2.3621 16.7895 4.3246 18.752 6.7371 18.752H14.2371Z" fill="#3D8BF2"/>
<path fill-rule="evenodd" clip-rule="evenodd" d="M5.48828 10.6289C5.48828 7.86766 7.72703 5.62891 10.4883 5.62891C13.2495 5.62891 15.4883 7.86766 15.4883 10.6289C15.4883 13.3902 13.2495 15.6289 10.4883 15.6289C7.72703 15.6289 5.48828 13.3902 5.48828 10.6289ZM7.36293 10.629C7.36293 12.3515 8.76543 13.754 10.4879 13.754C12.2104 13.754 13.6129 12.3515 13.6129 10.629C13.6129 8.90521 12.2104 7.50396 10.4879 7.50396C8.76543 7.50396 7.36293 8.90521 7.36293 10.629Z" fill="#3D8BF2"/>
<circle cx="15.8625" cy="5.25023" r="0.66625" fill="#3D8BF2"/>
</svg>
