<?xml version="1.0" encoding="utf-8"?>
<!-- Generator: Adobe Illustrator 28.3.0, SVG Export Plug-In . SVG Version: 6.00 Build 0)  -->
<svg version="1.1" id="Layer_1" xmlns="http://www.w3.org/2000/svg" xmlns:xlink="http://www.w3.org/1999/xlink" x="0px" y="0px"
	 viewBox="0 0 498.62 157.57" style="enable-background:new 0 0 498.62 157.57;" xml:space="preserve">
<style type="text/css">
	.st0{fill:#15294C;}
	.st1{font-family:'ArialRoundedMTBold';}
	.st2{font-size:37.9165px;}
	.st3{fill:#0C4692;}
</style>
<g>
	<text transform="matrix(1 0 0 1 337.3203 149.5721)"><tspan x="0" y="0" class="st0 st1 st2">.its mo</tspan><tspan x="122.04" y="0" class="st0 st1 st2">r</tspan><tspan x="137.74" y="0" class="st0 st1 st2">e</tspan></text>
	<path class="st3" d="M0,100.65V2.37l47.42,0.2c0,0,17.5-1.43,26.68,8.89c0,0,19.67,16.72,3.11,37.21c0,0,26.56,18.85-1.47,44.1
		c0,0-8.36,7.87-23.61,7.87H0z"/>
	<path class="st3" d="M196.02,52.33c0,28.9-23.43,52.33-52.33,52.33c-28.9,0-52.33-23.43-52.33-52.33C91.36,23.43,114.79,0,143.69,0
		C172.59,0,196.02,23.43,196.02,52.33"/>
	<path class="st3" d="M304.54,52.33c0,28.9-23.43,52.33-52.33,52.33c-28.9,0-52.33-23.43-52.33-52.33
		c0-28.9,23.43-52.33,52.33-52.33C281.12,0,304.54,23.43,304.54,52.33"/>
	<path class="st3" d="M309.68,102.62V53.76h19.51v-1.43c0,0-20-3.32-22.13-18.57c0,0-4.75-23.44,20.66-29.51h76.89v49.18h-16.72
		l-0.16,1.48c0,0,26.07,5.24,16.89,34.43c0,0-5.74,13.11-20.82,13.28H309.68z"/>
	<polygon class="st3" points="409.72,4.25 409.72,53.44 430.38,53.44 430.38,103.11 479.8,103.11 479.8,53.68 498.62,53.68 
		498.62,4.25 	"/>
</g>
</svg>
