<svg width="271" height="56" viewBox="0 0 271 56" fill="none" xmlns="http://www.w3.org/2000/svg">
<path d="M132.521 0.107476H127.732C125.9 0.107476 124.121 0.528212 122.509 1.32525C120.892 0.528212 119.098 0.107476 117.249 0.107476H112.459C109.281 0.107476 106.288 1.35488 104.035 3.62451C101.782 5.89118 100.539 8.90156 100.539 12.0986V25.743L89.9878 7.33711L89.9289 7.2334L89.8758 7.14155L89.8199 7.05266L89.7551 6.94897C88.6799 5.266 87.3044 3.80821 85.6637 2.62303C83.3485 0.951918 80.8478 0.107476 78.2292 0.107476H54.5767C52.7504 0.107476 50.9772 0.528228 49.3719 1.3223C47.7519 0.528228 45.961 0.107476 44.12 0.107476H11.9519C8.71479 0.107476 5.68972 1.37564 3.43934 3.67489C1.2243 5.94749 0.0078125 8.93415 0.0078125 12.0956V31.4408C0.0078125 38.8897 2.40546 44.9282 7.13597 49.3904C11.6898 53.6867 17.9461 55.8675 25.7311 55.8675H30.3674C36.4528 55.8675 41.6075 54.5282 45.7518 51.8823C45.9197 52.069 46.0935 52.2527 46.2732 52.4275C48.5089 54.6408 51.4779 55.8645 54.6297 55.8645H59.4721C62.6533 55.8645 65.643 54.6171 67.8904 52.3534C70.129 50.1045 71.3662 47.103 71.3662 43.9001V32.5934L80.2292 48.549L80.2764 48.6319L80.3264 48.7208L80.3795 48.8067L80.4354 48.9015C81.5577 50.7386 83.0628 52.303 84.9008 53.5416C87.1807 55.0823 89.649 55.8645 92.2323 55.8645H117.255C119.113 55.8645 120.88 55.4556 122.486 54.6615C124.094 55.4556 125.867 55.8645 127.738 55.8645H132.527C135.685 55.8645 138.56 54.6941 140.842 52.4808C143.184 50.2053 144.471 47.1593 144.471 43.9001V35.2808L145.178 36.3801V43.8971C145.178 47.1949 146.486 50.2527 148.86 52.5134C151.122 54.6675 153.971 55.8082 157.096 55.8082H161.938C165.093 55.8082 167.956 54.6497 170.221 52.4571C172.551 50.1993 173.832 47.1593 173.832 43.8971V40.9875C178.477 49.7934 187.691 55.8082 198.274 55.8082C204.772 55.8082 210.952 53.506 215.824 49.4823C216.386 50.5371 217.111 51.509 217.986 52.3712C220.221 54.5845 223.19 55.8082 226.342 55.8082H231.185C234.366 55.8082 237.355 54.5608 239.603 52.2971C240.808 51.0882 241.724 49.6601 242.31 48.0986H245.945C253.568 48.0986 259.659 46.0364 264.051 41.9653C268.663 37.6897 270.999 31.6897 270.999 24.1253C270.999 16.5608 268.66 10.5608 264.051 6.28526C259.662 2.21712 253.571 0.151928 245.945 0.151928H226.292C223.052 0.151928 220.03 1.44379 217.779 3.78749C216.984 4.61712 216.327 5.52377 215.809 6.49562C210.94 2.48081 204.766 0.18155 198.277 0.18155C193.694 0.18155 189.178 1.34304 185.172 3.50897C183.211 1.41415 180.398 0.154894 177.24 0.154894H172.321C167.24 0.154894 162.725 2.61711 159.926 6.90748V6.91341L159.897 6.95193L159.508 7.55637L159.125 6.96378C156.356 2.64081 151.823 0.154894 146.695 0.154894H141.803C140.215 0.154894 138.683 0.474895 137.293 1.0823C135.811 0.436377 134.203 0.101562 132.533 0.101562M132.521 4.41267C134.3 4.41267 135.973 5.00823 137.322 6.10156C138.465 5.07341 140.012 4.466 141.791 4.466H146.683C150.383 4.466 153.523 6.18748 155.526 9.31637L159.502 15.4764L163.47 9.3134L163.476 9.30452L163.482 9.29563C165.502 6.18155 168.639 4.466 172.312 4.466H177.231C180.566 4.466 183.09 6.59637 183.629 9.68377C187.635 6.43933 192.725 4.49266 198.268 4.49266C207.055 4.49266 214.704 9.37267 218.696 16.5816V12.1519C218.696 10.1134 219.438 8.2586 220.849 6.78601C222.286 5.28971 224.215 4.466 226.283 4.466H245.936C252.451 4.466 257.568 6.14599 261.141 9.45859C264.837 12.8838 266.711 17.823 266.711 24.1341C266.711 30.4453 264.837 35.3815 261.141 38.8067C257.565 42.1193 252.448 43.7993 245.936 43.7993H238.793V43.8497C238.793 45.9001 238.001 47.826 236.566 49.263C235.129 50.7119 233.214 51.509 231.179 51.509H226.336C224.316 51.509 222.407 50.7238 220.975 49.3016C219.506 47.8527 218.698 45.9149 218.698 43.8497V39.4201C214.707 46.629 207.058 51.509 198.271 51.509C185.364 51.509 174.901 40.9845 174.901 28.0008C174.901 27.5801 174.913 27.1623 174.934 26.7445L169.549 35.1179V43.903C169.549 45.986 168.734 47.9267 167.249 49.3638C165.8 50.7682 163.962 51.5119 161.935 51.5119H157.093C155.081 51.5119 153.252 50.7801 151.797 49.3964C150.286 47.9564 149.452 46.0067 149.452 43.906V35.1208L140.188 20.6912V43.909C140.188 45.989 139.364 47.9356 137.867 49.3904C136.4 50.8156 134.551 51.5682 132.524 51.5682H127.735C125.744 51.5682 123.929 50.8482 122.483 49.4912C121.034 50.8482 119.228 51.5682 117.252 51.5682H92.2293C90.5121 51.5682 88.8449 51.029 87.2779 49.9712C85.9524 49.0793 84.8743 47.9593 84.0702 46.6467L84.0142 46.5519L83.9612 46.4571L71.8345 24.629H67.0834V43.906C67.0834 45.9564 66.291 47.8793 64.8565 49.3193C63.4191 50.7682 61.5045 51.5682 59.4692 51.5682H54.6267C52.6061 51.5682 50.6974 50.7801 49.2659 49.3608C48.0935 48.2053 47.3513 46.7386 47.095 45.1445C46.7533 45.5297 46.3969 45.903 46.0169 46.2616C42.2702 49.7816 37.0066 51.5682 30.3674 51.5682H25.7311C19.0683 51.5682 13.7958 49.7815 10.0609 46.2556C6.22877 42.6408 4.28471 37.6571 4.28471 31.4467V12.1016C4.28471 10.0749 5.06233 8.15785 6.48502 6.70007C7.92833 5.22748 9.86649 4.41564 11.949 4.41564H44.1171C46.0965 4.41564 47.9522 5.15934 49.3837 6.50452C50.7916 5.15934 52.6179 4.41564 54.5737 4.41564H78.2263C79.9317 4.41564 81.5901 4.98747 83.163 6.12229C84.3647 6.99043 85.3692 8.05119 86.1527 9.28082L86.2204 9.38451L86.2823 9.49119L98.8155 31.3519H104.818V12.0986C104.818 10.0512 105.614 8.1223 107.06 6.67045C108.506 5.21563 110.424 4.41564 112.459 4.41564H117.249C119.237 4.41564 121.093 5.16229 122.509 6.51043C123.935 5.16229 125.776 4.41564 127.732 4.41564H132.521V4.41267Z" fill="white"/>
<path d="M110.011 36.576V12.0989C110.011 11.4263 110.25 10.8456 110.733 10.3626C111.213 9.87969 111.787 9.63672 112.459 9.63672H117.251C117.955 9.63672 118.544 9.87969 119.016 10.3626C119.487 10.8456 119.726 11.4263 119.726 12.0989V43.9063C119.726 44.5789 119.481 45.1538 118.992 45.6278C118.5 46.1049 117.923 46.3419 117.254 46.3419H92.232C91.5633 46.3419 90.8741 46.1049 90.1701 45.6278C89.4661 45.1538 88.9094 44.5789 88.497 43.9063L74.8858 19.4026H61.893V43.9063C61.893 44.5789 61.6574 45.1538 61.1832 45.6278C60.7119 46.1049 60.1405 46.3419 59.4718 46.3419H54.6294C53.9607 46.3419 53.3834 46.1049 52.9033 45.6278C52.4232 45.1538 52.1816 44.5789 52.1816 43.9063V12.0989C52.1816 11.4263 52.4143 10.8456 52.8768 10.3626C53.3422 9.87969 53.9077 9.63672 54.5764 9.63672H78.2289C78.8298 9.63672 79.4661 9.87969 80.1347 10.3626C80.8033 10.8456 81.3541 11.4263 81.7842 12.0989L95.8167 36.576H110.014H110.011Z" fill="white"/>
<path d="M125.285 43.9616V12.1009C125.285 11.4283 125.524 10.8475 126.007 10.3646C126.487 9.88162 127.061 9.63867 127.733 9.63867H132.525C133.229 9.63867 133.818 9.88162 134.29 10.3646C134.761 10.8475 135 11.4253 135 12.1009V43.9083C135 44.5809 134.755 45.1557 134.266 45.6298C133.774 46.1068 133.197 46.3439 132.528 46.3439H127.736C127.067 46.3439 126.49 46.1157 126.01 45.6565C125.53 45.1972 125.288 44.6342 125.288 43.9587" fill="white"/>
<path d="M140.453 10.9339C140.453 10.1043 140.898 9.68945 141.793 9.68945H146.686C148.627 9.68945 150.12 10.5102 151.166 12.1517L159.511 25.0791L167.829 12.1517C168.892 10.5102 170.386 9.68945 172.309 9.68945H177.228C178.103 9.68945 178.542 10.1043 178.542 10.9339C178.542 11.3132 178.403 11.7191 178.129 12.1517L164.35 33.5769V43.9028C164.35 44.5754 164.115 45.1413 163.64 45.6006C163.169 46.0569 162.598 46.288 161.929 46.288H157.087C156.418 46.288 155.841 46.0598 155.36 45.6006C154.88 45.1413 154.639 44.5754 154.639 43.9028V33.5769L140.886 12.1517C140.595 11.722 140.447 11.3132 140.447 10.9339" fill="white"/>
<path d="M223.889 43.8524V12.1517C223.889 11.4791 224.121 10.8983 224.584 10.4154C225.046 9.93242 225.615 9.68945 226.283 9.68945H245.936C256.325 9.68945 261.518 14.5043 261.518 24.1339C261.518 33.7635 256.325 38.5783 245.936 38.5783H233.6V43.8524C233.6 44.525 233.364 45.0998 232.89 45.5739C232.419 46.0509 231.847 46.288 231.179 46.288H226.336C225.668 46.288 225.09 46.0509 224.61 45.5739C224.13 45.0998 223.889 44.525 223.889 43.8524Z" fill="white"/>
<path d="M39.3246 9.63867H44.114C44.818 9.63867 45.4101 9.88162 45.8902 10.3646C46.3703 10.8475 46.6118 11.4283 46.6118 12.1009V31.449C46.6118 36.1809 45.2304 39.8461 42.4645 42.4476C39.6987 45.0461 35.6663 46.3468 30.3584 46.3468H25.7222C20.3996 46.3468 16.3583 45.0461 13.6043 42.4476C10.8473 39.849 9.46875 36.1839 9.46875 31.449V12.1009C9.46875 11.4283 9.70438 10.8505 10.1757 10.3646C10.6499 9.88162 11.2361 9.63867 11.9401 9.63867H39.3187H39.3246Z" fill="white"/>
<path d="M194.536 21.5312C194.039 21.5312 193.559 21.6201 193.137 21.7772C191.812 22.2661 191.02 23.3416 191.02 24.6513C191.02 24.8794 191.046 25.1076 191.099 25.3505C191.494 27.1727 193.435 28.7757 195.311 30.3283C195.559 30.5327 195.803 30.7342 196.048 30.9387C196.757 31.5342 197.576 32.2453 198.257 33.0009C198.274 33.0216 198.301 33.0276 198.319 33.0276C198.336 33.0276 198.363 33.0216 198.38 33.0009C199.061 32.2453 199.88 31.5342 200.59 30.9387C200.834 30.7342 201.079 30.5298 201.326 30.3283C203.202 28.7787 205.143 27.1727 205.538 25.3505C205.591 25.1076 205.618 24.8764 205.618 24.6513C205.618 23.3416 204.825 22.2661 203.5 21.7772C202.198 21.2972 200.342 21.4542 199.129 22.8883C198.928 23.1283 198.631 23.2646 198.319 23.2646C198.006 23.2646 197.712 23.1283 197.509 22.8883C196.69 21.9164 195.576 21.5312 194.539 21.5312" fill="white"/>
<path d="M208.941 18.1801C210.016 17.706 210.753 16.5979 210.682 15.3267C210.6 13.8867 209.433 12.6868 208.005 12.5771C206.496 12.4616 205.206 13.5016 204.923 14.9119C203.103 13.9282 201.074 13.3564 198.994 13.2527V21.1668C199.893 20.5119 200.988 20.1623 202.105 20.1623C202.726 20.1623 203.356 20.269 203.963 20.4942C205.81 21.1756 206.959 22.7549 206.971 24.6216L211.775 23.5371C211.236 21.5668 210.261 19.7357 208.944 18.1771" fill="#F094BC"/>
<path d="M191.953 14.7817C191.635 13.5106 190.495 12.5684 189.134 12.5684C187.526 12.5684 186.221 13.881 186.221 15.4987C186.221 16.6187 186.849 17.5936 187.771 18.0854C186.413 19.6617 185.411 21.5284 184.857 23.5402L189.662 24.6247C189.673 22.758 190.822 21.1787 192.669 20.4973C194.366 19.8721 196.236 20.1506 197.638 21.1669V13.2528C195.653 13.3506 193.712 13.878 191.956 14.7817" fill="#A89ECD"/>
<path d="M211.954 30.2429C212.161 29.28 212.272 28.2874 212.272 27.277C212.272 26.4711 212.205 25.6622 212.066 24.8711L206.744 26.0741C206.093 28.1511 204.105 29.7926 202.181 31.3837C202.093 31.4548 202.004 31.5289 201.916 31.603L206.479 38.6666C207.801 37.7066 208.926 36.5363 209.822 35.2237C210.349 35.7629 211.085 36.0978 211.895 36.0978C213.504 36.0978 214.806 34.7881 214.806 33.1704C214.806 31.5526 213.533 30.2755 211.951 30.2459" fill="#A0CD96"/>
<path d="M205.345 39.4088L200.871 32.4844C200.358 32.9288 199.831 33.4177 199.38 33.9184C199.109 34.2207 198.721 34.3925 198.314 34.3925C197.908 34.3925 197.519 34.2207 197.248 33.9184C196.797 33.4207 196.27 32.9318 195.757 32.4844L191.283 39.4088C192.615 40.191 194.061 40.7422 195.563 41.0444C195.46 41.3436 195.401 41.6666 195.401 42.0014C195.401 43.6192 196.706 44.9288 198.311 44.9288C199.917 44.9288 201.221 43.6162 201.221 42.0014C201.221 41.6666 201.162 41.3436 201.059 41.0444C202.562 40.7422 204.008 40.191 205.339 39.4088" fill="#F7D84C"/>
<path d="M194.448 31.3837C192.522 29.7926 190.537 28.1511 189.886 26.0741L184.563 24.8711C184.428 25.6652 184.357 26.4711 184.357 27.277C184.357 28.2874 184.469 29.277 184.675 30.24C184.663 30.24 184.651 30.24 184.64 30.24C183.031 30.24 181.727 31.5526 181.727 33.1674C181.727 34.7822 183.031 36.0948 184.64 36.0948C185.479 36.0948 186.233 35.7363 186.766 35.1615C187.671 36.5007 188.811 37.6889 190.151 38.6607L194.713 31.597C194.625 31.5229 194.537 31.4518 194.448 31.3778" fill="#EF8B45"/>
</svg>
